<svg
    xmlns="http://www.w3.org/2000/svg"
    width={1544}
    height={1706.667}
    viewBox="0 0 1158 1280"
    {...props}
  >
    <g fill="#673ab7">
      <path d="M554.7 1.1c-60.7 5.3-118.4 31.4-168 75.6-48.2 43.2-85.4 104.9-100.6 167.1-6.3 25.9-7.5 36.2-7.5 66.2 0 32.8 1 39.7 10.9 74.5 3.4 12.1 9.7 36.6 14 54.5 11.2 47.1 16.4 63.8 26.2 83.7 8.6 17.6 20.1 29.8 32.2 34.3 2.9 1.1 8.7 2.5 12.8 3.1 13.4 1.9 53.8 16.2 58.8 20.9 4.7 4.4 21.7 40.1 27.9 58.5 4.5 13.1 4.7 13.5 8.7 15.5 6.4 3.3 34.5 10.1 53.4 12.9 29.6 4.5 67.5 4.7 99 .6 15.7-2 49.5-8.6 59-11.6 9.7-3 11.5-5.2 16-19.5 2-6.5 5.5-16.4 7.7-21.9 5.3-13.4 16.4-34.2 19.2-36 4.3-2.8 19.5-8.5 33.8-12.6 11.1-3.1 17-4.2 26.5-4.9 16.1-1.1 21.7-3.5 31.1-13.4 15.4-16.3 24.5-40.7 37.1-98.6 8.3-37.9 11.1-49.6 15.8-66 9.4-32.6 11.9-51.2 11-82.5-3.1-104.7-68.8-210.9-164-264.9-49.5-28.1-105.5-40.5-161-35.5zm-97.2 238.3c34.3 10.1 61.8 34.6 68.2 61 1.4 5.8 1.5 8.3.6 15.4-1 7.7-1.9 10.2-9.2 24.9-34 68.2-62.1 93.5-96.3 86.9-32-6.2-62.8-36.7-73-72.1-2-7-2.3-10.1-2.2-24.5.1-13.4.5-17.9 2.2-24.2 9.8-36.2 35.9-62.4 69.2-69.4 10.4-2.2 29.4-1.2 40.5 2zm282.8-2c35.1 6.7 62.9 36 70.9 74.6 2.6 12.5 2.1 32.7-1.1 44-8.3 28.8-32 56.2-58.4 67.2-41.1 17.3-72.2-5.7-110.5-81.8-10.5-20.7-12.1-28.9-8.3-43.1 7.2-27.4 38.6-52.8 75.2-60.8 8.5-1.8 22.9-1.8 32.2-.1zM587.2 439.7c26.3 25.4 45.4 57.1 56.8 94.8 2 6.8 2 7 .2 9.4-2.6 3.6-7.8 5.9-16.8 7.7-10.7 2.1-14.8 1.3-28.9-5.4-11.1-5.3-12.5-5.7-19-5.7-6.8 0-7.3.2-17 6l-9.9 6-9.6-.1c-10.7-.1-18.5-1.5-24.6-4.5-6-2.8-6.7-5.1-4.4-14.6 5.2-21.6 16.1-43.4 33.2-66 7-9.2 26.8-31.9 29.2-33.5 2.3-1.6 4-.6 10.8 5.9z" />
      <path d="M763.1 610.9c-9.5 2.8-19.6 8.3-31.3 17.1l-10.5 7.9-5.3 14.8c-9.7 27.2-20.2 46.2-28.7 51.7-3.9 2.5-12.9 5-33.4 9.1-29.1 5.9-65.1 9.1-90.9 8.1-37.5-1.6-82.4-10-92.7-17.5-8.6-6.2-18.5-23.7-28.4-49.9-3.2-8.5-6-15.6-6.1-15.8-.7-.6-26.8-10.8-32.3-12.6-9.9-3.2-19.2-4.8-27.6-4.8-7 0-7.9.2-7.9 1.8 0 3.1 9.2 33.8 20 66.7 5.6 17 13.3 42 17.2 55.5 13.1 46.1 20.3 54 54.8 60.9 51.7 10.3 105.1 12.4 171.5 6.6 37.5-3.3 91-10.8 97.8-13.7 10.5-4.5 15.3-14.1 24.1-48.4 3.6-13.8 9.2-34.3 12.6-45.5 20.7-69.5 26.8-91.5 25.6-92.6-.4-.4-5.5-.9-11.4-1-8.1-.2-12.3.2-17.1 1.6z" />
      <path d="M71.3 622.9c-13.4 3.7-22.1 9.6-28.4 19.3-5.2 8.1-6.2 13.3-4.4 24.1 2.2 13.9.7 16.7-12.5 22.2-3.6 1.5-8 3.6-9.9 4.8-3.6 2.2-10.7 12.5-13.5 19.7-3.7 9.4-3.1 23.2 1.5 35.7 4.8 12.6 19.4 30.2 32.3 38.7 28.1 18.6 50.7 18.8 87.4.9 15.3-7.5 13.1-7.5 26.8.7 4.5 2.7 35.6 20.7 69 40.1 33.5 19.3 66.5 38.4 73.4 42.4 50.5 29.2 105.6 61 116.5 67.3 7.2 4.1 24.3 14 38 22 13.8 7.9 32.8 18.9 42.3 24.4s17.2 10.2 17 10.3c-.2.2-10 5.9-21.8 12.7-48.7 28.1-123.6 71.4-155 89.6-19.2 11.2-34.6 19.5-36 19.5-1.4 0-6.3-1.9-11-4.2-20.3-10-38.6-14.9-51.8-13.7-18.6 1.7-35.2 10.3-51.2 26.5-11.7 11.9-18.6 24.2-21.1 37.8-3.7 19.5 5.5 39 20.5 43.9 7.8 2.5 13.2 6 14.6 9.4.9 2.2 1.1 5.4.4 11.8-1.2 13-.8 16 3.2 24 9.2 18.8 27.5 28.1 52.4 26.9 21.4-1.1 44.2-10.8 57.8-24.7 7.6-7.7 12.2-15.3 15.9-26 3.6-10.6 5.1-19.5 6.1-36.8l.7-11.7 9.5-5.6c5.2-3.1 43.3-25.1 84.5-48.9 41.3-23.8 91-52.6 110.5-63.8 19.5-11.3 37.4-21.7 39.8-23l4.2-2.4 4.3 2.4c6.5 3.7 120 69.3 130.2 75.3 5 2.9 31.1 18 58 33.5 27 15.5 50.7 29.3 52.8 30.6 3.7 2.4 3.7 2.5 3.7 9 0 9.7 1.8 24.8 4.2 34.4 6.6 27.2 25.2 45.1 56.6 54.7 7.6 2.3 10.5 2.6 22.7 2.7 12.7 0 14.7-.3 21.4-2.7 13.4-4.8 22-12.4 28.5-25.4 2.9-5.9 3.3-9.9 2.1-22.9-1.2-13.7-1-13.9 18.2-22.4 6.7-3 10.5-6.9 14.3-15.2 9.1-19.5 2.3-44.3-18-64.9-12.2-12.3-23.4-19.5-37.2-23.7-18.9-5.9-35.9-3.1-65.1 10.5l-11.7 5.5-3.8-1.9c-2-1.1-25.3-14.4-51.7-29.7-26.4-15.3-67.1-38.9-90.5-52.4-48.8-28.1-66.4-38.3-66.8-38.7-.1-.1 7.7-4.9 17.5-10.5 9.8-5.7 28.8-16.7 42.3-24.5 28.4-16.5 63.1-36.5 109-63 17.9-10.3 35-20.1 38-21.9 3-1.8 11.8-6.9 19.5-11.3 7.7-4.5 28.2-16.3 45.5-26.3s40.5-23.4 51.5-29.8c11-6.3 24.3-14.1 29.5-17.2 5.2-3.2 11.2-6.6 13.2-7.6l3.7-1.7 13.3 6.5c35.4 17.4 58.4 17.7 84.2 1.1 26-16.7 41.1-41.7 39.3-65.2-.5-6.4-1.3-9-5.3-16.9-5.5-10.8-8.5-13.7-19.3-18.2-4.2-1.8-8.8-4.1-10.3-5.2-3.7-2.6-4.9-7.5-3.7-14.6 1.8-10.6 1.3-16.8-1.7-23-8.2-16.8-27.3-26.1-51.3-24.9-13.5.6-24 3.4-36.6 9.7-12 5.9-21.1 13.1-27 21.1-10 13.6-14.4 28.3-16.1 54.2-.4 5.6-1.1 11-1.5 11.9-1 1.9-3.9 3.6-33.9 20.8-11.8 6.7-23.5 13.5-26 15s-26.5 15.4-53.5 31c-26.9 15.5-54.6 31.5-61.5 35.5-6.9 4-23.1 13.3-36 20.8-23.7 13.6-36.8 21.2-60.5 34.9-7.1 4.1-21.5 12.5-32 18.5-10.4 6-37.8 21.8-60.7 35.1L579 953.9l-21.7-12.5c-12-6.9-30.6-17.7-41.3-23.9-10.7-6.2-31-17.9-45-26-14-8.1-30-17.3-35.5-20.5-5.5-3.2-30.2-17.5-55-31.8-101.2-58.3-193.4-111.6-199.7-115.3-3.7-2.2-7.2-4.7-7.7-5.7-.4-.9-1.1-6.2-1.5-11.7-2.2-32.4-9.7-51-26.2-64.8-8.1-6.9-23.4-14.6-34.9-17.8-11.6-3.1-29.6-3.6-39.2-1z" />
    </g>
  </svg>