<svg
    xmlns="http://www.w3.org/2000/svg"
    viewBox="0 0 724.81 731.35"
    {...props}
  >
    <defs>
      <clipPath id="b" clipPathUnits="userSpaceOnUse">
        <path
          stroke="#5a5a5a"
          strokeWidth={2.246}
          fill="#f7f706"
          d="M299.26 386.87c-59.927.192-118.15 33.338-149.43 84.528-29.587 47.381-34.943 109.53-13.359 161.15 20.457 50.286 64.824 90.128 117.24 104.35 52.87 14.818 112.47 3.74 155.86-29.943 43.391-32.827 70.497-86.457 70.265-141.19.442-54.482-25.675-108.28-68.957-141.47-31.64-24.56-71.52-38.14-111.62-37.43zm1.817 106.99c32.484-.708 63.264 23.601 69.963 55.43 6.898 29.342-6.884 62.048-33.025 77.065-25.348 15.319-60.217 12.718-82.544-6.863-20.668-17.356-30.166-47.046-22.731-73.19 8.149-30.116 36.926-52.731 68.337-52.442z"
        />
      </clipPath>
      <clipPath id="c" clipPathUnits="userSpaceOnUse">
        <path
          stroke="#5a5a5a"
          strokeWidth={3.194}
          fill="#f7f706"
          d="M263.33 41.974c-85.22.273-168.01 47.406-212.49 120.2-42.074 67.38-49.689 155.75-18.997 229.15 29.09 71.506 92.179 128.16 166.71 148.38 75.18 21.071 159.93 5.318 221.64-42.579 61.7-46.68 100.24-122.94 99.91-200.77.63-77.47-36.5-153.97-98.05-201.17-44.99-34.912-101.7-54.217-158.72-53.206zm2.583 152.14c46.192-1.007 89.961 33.56 99.486 78.821 9.81 41.725-9.788 88.232-46.96 109.58-36.045 21.783-85.628 18.084-117.38-9.76-29.39-24.68-42.897-66.898-32.325-104.07 11.588-42.824 52.508-74.982 97.175-74.571z"
        />
      </clipPath>
      <clipPath id="a" clipPathUnits="userSpaceOnUse">
        <path
          fill="#0e0d0d"
          d="M713.37 615.95c0 204.69-163.07 370.62-364.22 370.62S-15.07 820.64-15.07 615.95 148 245.33 349.15 245.33s364.22 165.93 364.22 370.62z"
        />
      </clipPath>
    </defs>
    <g clipPath="url(#a)" transform="matrix(.96971 0 0 .96105 19.667 -228.229)">
      <path
        fill="#040404"
        d="M355.7 255.23c-202.77 0-367.14 164.38-367.14 367.14 0 202.77 164.38 367.14 367.14 367.14 202.77 0 367.14-164.38 367.14-367.14 0-202.77-164.38-367.14-367.14-367.14zm0 299.19c37.519 0 67.955 30.436 67.955 67.955s-30.436 67.931-67.955 67.931-67.931-30.412-67.931-67.931 30.412-67.955 67.931-67.955z"
      />
      <path
        stroke="#5a5a5a"
        strokeWidth={0.765}
        fill="none"
        d="M355.41 281.19c-124.71-1.08-246.44 72.8-302.63 183.88-49.814 95.16-51.356 214.92-2.02 310.54 41.127 82.13 116.61 146.62 204.79 173.05 85.33 26.31 181.46 17.73 259.99-24.78 73-38.48 131.09-104.26 159.76-181.72 30.11-79.9 29.07-171.78-4.41-250.64-30.07-72.53-85.39-134.02-155.02-170.36-49.1-26.15-104.68-40.47-160.46-39.97z"
      />
      <path
        stroke="#5a5a5a"
        strokeWidth={0.765}
        fill="none"
        d="M353.43 285.71c-122.52-.18-241.91 72.85-296.95 182.04C4.915 566.8 6.595 692.26 63.038 788.81c48.222 85.32 135.17 147.85 232.01 164.8 86.6 15.82 179.4-3.28 251.51-53.85 73.5-50.35 125.88-130.95 140.78-219.09 14.15-79.98-1.54-165.04-44.37-233.94-39.11-64.2-100.19-114.53-170.96-140.25-37.76-14.06-78.2-21.15-118.58-20.77z"
      />
      <path
        stroke="#5a5a5a"
        strokeWidth={0.765}
        fill="none"
        d="M347.62 290.34c-121.69 2.09-239.11 77.22-290.96 187.21C7.196 579.01 13.639 706.47 75.778 801.12c53.832 84.74 147.85 143.36 248.51 151.9 89.06 8.5 181.14-20.08 248.41-79.18 68.06-58.63 111.33-145.84 114.79-235.88 4.08-83.32-24.46-167.77-78.78-230.8-55.28-65.28-137.61-108.46-223.32-115.57-12.551-1.158-25.168-1.439-37.766-1.243z"
      />
      <path
        stroke="#5a5a5a"
        strokeWidth={0.765}
        fill="none"
        d="M354.15 294.84C236.09 294.46 121 364.05 66.34 468.39 9.852 573.57 16.62 710.6 86.009 808.26c56.71 82.651 152.92 137.35 253.53 141.26 94.74 4.904 191.01-33.282 255.15-103.15 61.183-65.206 94.661-156.1 87.872-245.77-5.51-85.435-45.938-168.29-110.5-224.14-59.345-52.177-138.45-82.563-217.92-81.621z"
      />
      <path
        stroke="#5a5a5a"
        strokeWidth={0.765}
        fill="none"
        d="M354.15 299.43c-119.5-.37-235.49 71.85-287.91 179.05-52.038 104.13-42.594 237.25 26.358 331.29 58.882 83.05 158.88 136.12 261.28 135.59 97.492.816 194.51-44.81 254.37-121.68 54.298-67.831 80.232-159 67.451-245.58-12.41-91.05-65.38-175.95-142.61-225.52-52.8-34.57-115.63-53.86-178.94-53.15z"
      />
      <path
        stroke="#5a5a5a"
        strokeWidth={0.765}
        fill="none"
        d="M354.22 304.02c-115.43-.31-227.51 67.91-280.66 170.09-57.503 108.43-45.376 250.79 32.6 346.11 62.052 78.394 162.46 125.63 262.88 120.33 98.178-3.918 193.34-55.422 248.35-136.82 50.946-73.032 69.58-168.32 48.172-254.98-20.89-88.13-80.59-166.45-161.23-207.8-46.06-24.33-97.97-37.49-150.11-36.93z"
      />
      <path
        stroke="#5a5a5a"
        strokeWidth={0.765}
        fill="none"
        d="M354.29 308.61c-113.57-.33-223.96 66.78-276.46 167.12-57.092 107.29-44.837 248.4 32.56 342.6 59.46 74.16 154.02 120.19 249.8 117.99 93.83-1.28 186.17-46.69 243.31-121.1 53.74-69.16 77.27-161.56 61.33-248.16-16.05-88.98-71.67-169.97-150.09-215.27-48.39-28.09-104.35-43.76-160.45-43.18z"
      />
      <path
        stroke="#5a5a5a"
        strokeWidth={0.765}
        fill="none"
        d="M354.36 313.2c-115.09-.35-226.81 69.61-276.79 173.09-50.663 103.33-38.086 235.63 33.79 326.02 61.2 78.318 161.46 125.45 261.26 119.01 100.67-5.434 197.4-62.65 248.27-149.69 45.83-76.287 57.528-173.47 27.966-257.99-27.62-81.45-89.55-150.59-168.83-184.29-39.5-17.3-82.48-26.56-125.67-26.15z"
      />
      <path
        stroke="#5a5a5a"
        strokeWidth={0.765}
        fill="none"
        d="M350.92 317.76c-117.72 1.19-230.86 76.58-275.96 185.33-44.367 105.07-25.236 235.37 51.61 320.3 64.21 72.83 164.48 113.6 261.58 102.05 97.32-10.4 188.7-69.93 234.81-156.61C667.97 686.9 673.38 583.52 634 498.3c-33.26-74.35-96.57-134.73-173.7-161.94-34.92-12.84-72.08-19.21-109.38-18.6z"
      />
      <path
        stroke="#5a5a5a"
        strokeWidth={0.765}
        fill="none"
        d="M353.12 322.33c-114.74.255-225.68 72.524-271.77 177.33-41.88 94.643-31.368 211.21 28.707 295.7 57.994 82.275 159.33 132.55 260.49 127.02 100.97-4.952 197.94-63.994 246.8-152.58 45.802-81.431 51.622-184.89 12.418-270.04-33.974-75.106-98.926-135.71-177.52-161.42-31.822-10.756-65.44-16.364-99.118-16.004z"
      />
      <path
        stroke="#5a5a5a"
        strokeWidth={0.765}
        fill="none"
        d="M353.19 326.92c-113.01.29-222.16 71.39-267.64 174.47-44.841 101.16-28.523 227.78 44.22 311.89 62.79 73.77 163.31 115.03 260.08 102.88 100.88-11.9 194.01-78.14 234.98-171.29 38.35-84.55 35.21-187.95-12.12-268.44-38.88-68.17-105.24-120.47-181.52-139.64-25.388-6.739-51.68-10.134-77.999-9.879z"
      />
      <path
        stroke="#5a5a5a"
        strokeWidth={0.765}
        fill="none"
        d="M353.26 331.51c-112.95.31-222.04 72.404-265.61 176.59-42.16 100.05-24.157 224.02 48.29 305.36 63.841 72.893 165.84 112.3 262.41 96.958 97.132-14.64 185.6-80.494 224.09-171.26 35.967-82.819 31.943-183.08-13.989-261.18-39.331-67.991-106.26-119.96-183.1-137.98-23.544-5.714-47.798-8.732-72.087-8.476z"
      />
      <path
        stroke="#5a5a5a"
        strokeWidth={0.765}
        fill="none"
        d="M353.33 336.09c-108.5.31-213.41 67.91-258.28 166.49-46.216 101.11-28.094 229.6 47.66 311.61 63.98 70.36 164.28 107.38 258.71 91.09 95.11-15.6 181.15-81.28 218-170.71 37.49-88.41 28.14-196.44-28.02-274.88-43.03-62.03-111.11-106.95-186.08-119.22-17.139-3.014-34.551-4.538-51.988-4.374z"
      />
      <path
        stroke="#5a5a5a"
        strokeWidth={0.765}
        fill="none"
        d="M350.87 340.71c-109.42 1.36-214.49 72.1-255.76 173.19-39.239 95.82-22.028 213.35 46.14 291.83 63.33 73.4 166.17 112.16 262.38 94.56 96.56-16.96 182.63-86.18 216.05-178.78 33.32-89.09 19.27-195.5-40.19-270.38-47.85-62.47-122.67-104.26-201.66-109.54-8.963-.763-17.969-1.003-26.962-.884z"
      />
      <path
        stroke="#5a5a5a"
        strokeWidth={0.765}
        fill="none"
        d="M350.94 345.3c-109.58 1.37-214.65 73.43-253.82 175.89-36.98 96.43-16.66 213.69 54.48 289.23 64.16 68.91 164.87 103.53 257.76 84.13 93.1-18.6 175.36-87.15 207-177.07 31.97-88.17 16.85-193.18-42.52-266.34-50.11-63.45-128.6-104.35-209.96-105.73-4.308-.152-8.621-.167-12.932-.115z"
      />
      <path
        stroke="#5a5a5a"
        strokeWidth={0.765}
        fill="none"
        d="M355.92 349.86c-106.93-.76-210.69 67.54-251.82 166.21-39.068 93.9-21.578 209.68 46.02 285.91 62.14 70.48 162.1 106.67 255.01 88.78 96.86-18.06 182.12-91.28 210.74-186.08 27.41-87.6 8.57-189.6-52.29-258.9-51.14-59.63-128.56-96.9-207.66-95.92z"
      />
      <path
        stroke="#5a5a5a"
        strokeWidth={0.765}
        fill="none"
        d="M355.99 354.45c-106.59-.84-210 68.33-249.28 167.37-37.842 95.29-16.92 212.56 55.07 285.99 61.32 63.44 154.74 94.95 241.95 78.59 94.05-17.34 177.34-87.87 206.63-179.36 28.74-87.51 10.18-190.33-51.35-259.52-50.04-57.71-125.87-94.08-203.02-93.07z"
      />
      <path
        stroke="#5a5a5a"
        strokeWidth={0.765}
        fill="none"
        d="M356.06 359.04c-110.29-.96-217.33 74.7-250.69 180.15-28.915 89.63-7.518 194.85 57.56 263.27 62.1 65.79 159.58 97.74 248.56 77.7 84.6-18.76 158.69-80.65 190.06-161.86 34.09-87.9 17.66-194.57-44.42-266.06-49.47-57.71-124.42-94.19-201.07-93.2z"
      />
      <path
        stroke="#5a5a5a"
        strokeWidth={0.765}
        fill="none"
        d="M356.13 363.63C255 362.775 156.84 427.212 117.3 520.17c-40.733 96.034-18.116 216.7 58.374 288.6 61.01 58.152 151.62 85.433 234.55 67.021 90.93-19.944 169.64-91.359 194.49-181.49 23.907-84.349 3.177-181.17-56.769-245.55-48.6-52.87-119.39-86.06-191.81-85.12z"
      />
      <path
        stroke="#5a5a5a"
        strokeWidth={0.765}
        fill="none"
        d="M356.2 368.22c-103.37-.89-203.42 67.637-238.98 164.56-31.93 86.967-13.187 191.38 49.285 260.17 60.16 65.993 156.34 97.873 243.86 78.153 90.61-20.33 168.7-92.87 191.44-183.47 21.45-82.93-.42-177.1-60.29-239.08-47.65-49.94-115.73-81.25-185.31-80.33z"
      />
      <path
        stroke="#5a5a5a"
        strokeWidth={0.765}
        fill="none"
        d="M356.27 372.81c-103.19-.947-203.08 68.696-236.46 166.4-30.778 89.797-7.433 197.01 61.904 262.7 61.858 59.169 155.18 84.938 238.21 62.097 82.327-22.496 151.8-88.271 175.61-170.56 24.09-83.185 2.967-179.29-57.485-241.92-46.75-48.8-113.59-79.634-181.78-78.711z"
      />
      <path
        stroke="#5a5a5a"
        strokeWidth={0.765}
        fill="none"
        d="M356.35 377.4c-99.433-.932-195.61 64.812-230.24 157.85-32.491 87.34-11.501 193.23 54.719 259.39 60.402 60.744 154.5 87.851 237.88 64.919 81.342-22.093 150.2-87.793 172.93-169.3 22.681-80.711 2.243-172.94-55.502-234.08-45.996-48.777-112.15-79.651-179.79-78.783z"
      />
      <path
        stroke="#5a5a5a"
        strokeWidth={0.765}
        fill="none"
        d="M356.39 381.99c-98.445-.868-193.38 64.535-226.75 157-31.317 86.726-9.208 191.23 57.5 255.44 59.676 57.778 150.16 82.705 230.66 60.617 79.853-21.73 147.13-86.306 169.52-166.24 22.068-78.657 2.163-168.88-53.805-228.72-45.26-48.37-110.43-78.92-177.12-78.1z"
      />
      <path
        stroke="#5a5a5a"
        strokeWidth={0.765}
        fill="none"
        d="M356.42 386.58c-100.85-1.07-198.55 69.63-226.7 166.89-25.493 86.423 1.081 187.35 69.946 246.21 59.429 51.539 145.4 72.188 221.29 49.691 76.11-22.318 140.01-84.504 161.75-161.17 22.189-77.898 2.083-167.35-53.733-226.31-44.283-46.537-107.71-76.13-172.55-75.317z"
      />
      <path
        stroke="#5a5a5a"
        strokeWidth={0.765}
        fill="none"
        d="M356.49 391.17c-98.291-1.006-193.23 67.227-221.74 161.4-25.232 82.469-1.764 179 61.565 237.99 58.044 54.317 145.09 76.952 221.98 54.832 78.777-22.533 144.45-88.759 162.78-169.28 18.342-78.946-6.542-167.8-67.066-222.45-42.449-38.96-99.32-63.181-157.52-62.49z"
      />
      <path
        stroke="#5a5a5a"
        strokeWidth={0.765}
        fill="none"
        d="M356.56 395.76c-94.579-.966-186.07 63.355-215.89 153.33-27.729 83.381-3.562 182.88 62.505 241.51 58.136 52.052 144.03 72.374 218.88 48.875 77.654-24.107 141.23-91.999 156.27-172.46 14.568-75.251-10.223-158.06-67.191-209.81-41.768-38.324-97.592-62.149-154.58-61.453z"
      />
      <path
        stroke="#5a5a5a"
        strokeWidth={0.765}
        fill="none"
        d="M356.63 400.34c-85.874-.812-168.9 52.904-204.15 130.99-37.332 83.452-16.928 189.69 49.716 252.14 56.89 53.731 143.26 75.058 218.4 51.677 74.81-23.287 136.07-87.629 152.38-164.71 16.527-76.717-9.448-162.42-69.303-213.78-40.406-35.18-93.112-56.958-147.04-56.318z"
      />
      <path
        stroke="#5a5a5a"
        strokeWidth={0.765}
        fill="none"
        d="M352.31 404.93c-91.55 1.004-179.34 65.556-205.01 153.76-23.17 78.658.435 170.09 61.86 224.99 56.888 51.128 142.29 70.306 215.22 45.439 74.915-25.366 134.8-93.197 146.4-172 10.882-70.603-13.858-146.44-67.118-194.47-41.053-36.804-95.682-59.467-151.35-57.725z"
      />
      <path
        stroke="#5a5a5a"
        strokeWidth={0.765}
        fill="none"
        d="M355.01 409.45c-90.752-.065-177.97 63.443-203.41 150.87-22.555 76.837.636 166.25 60.641 219.98 55.092 49.533 137.14 68.209 208.02 45.391 64.288-20.941 117.29-73.074 138.46-137.45 25.397-77.618 1.464-169.89-60.048-223.95-39.411-34.362-90.983-55.756-143.66-54.838z"
      />
      <path
        stroke="#5a5a5a"
        strokeWidth={2.246}
        fill="#f7f706"
        d="M353.55 444.01c-59.927.192-118.15 33.338-149.43 84.528-29.587 47.381-34.943 109.53-13.359 161.15 20.457 50.286 64.824 90.128 117.24 104.35 52.87 14.818 112.47 3.74 155.86-29.943 43.391-32.827 70.497-86.457 70.265-141.19.442-54.482-25.675-108.28-68.957-141.47-31.641-24.552-71.517-38.129-111.62-37.418zM355.367 551c32.484-.708 63.264 23.601 69.963 55.43 6.898 29.342-6.883 62.048-33.025 77.065-25.348 15.319-60.217 12.718-82.544-6.863-20.668-17.356-30.166-47.046-22.731-73.19 8.149-30.116 36.926-52.731 68.337-52.442z"
      />
      <path
        d="m334.29 589.51-66.908-24.106-57.789 41.451 2.25-71.083-57.28-42.152 68.3-19.826 22.387-67.502 39.961 58.83 71.117.433-43.602 56.184z"
        clipPath="url(#b)"
        transform="translate(54.286 57.143)"
        stroke="#5a5a5a"
        strokeWidth={2.416}
        fill="#f70f06"
      />
      <path
        d="m502.289 607.222-33.945-12.23-29.32 21.03 1.143-36.063-29.06-21.386 34.65-10.058 11.358-34.247 20.274 29.847 36.08.22-22.12 28.504z"
        stroke="#5a5a5a"
        strokeWidth={1.22573344}
        fill="#f70f06"
      />
      <path
        d="m334.29 589.51-66.908-24.106-57.789 41.451 2.25-71.083-57.28-42.152 68.3-19.826 22.387-67.502 39.961 58.83 71.117.433-43.602 56.184z"
        clipPath="url(#c)"
        transform="translate(168.37 414.5) scale(.70324)"
        stroke="#5a5a5a"
        strokeWidth={2.416}
        fill="#f70f06"
      />
      <path
        style={{
          blockProgression: "tb",
          color: "#000",
          textTransform: "none",
          textIndent: 0,
        }}
        fill="#fff"
        d="M3.58 648.79c4.057 215.23 210.4 342.43 367.31 324.79C175.47 994.8 9.37 810.65 3.58 648.79zM159.29 624.5c2.045 131.43 103.94 199.18 183.03 188.41-98.498 12.956-180.11-89.574-183.03-188.41z"
      />
    </g>
    <path
      opacity={0.239}
      fill="#000101"
      d="M650.376 530.924C577.958 637.08 295.724 745.699 161.982 656.139c-133.743-89.599-219.62-409.35-23.787-531.903 350.501-68.869 610.704 334.35 512.181 406.688z"
    />
    <path
      opacity={0.265}
      fill="#f3ede9"
      d="M216.499 367.497c13.798 51.441 35.188 113.077 97.28 140.458-51.297-8.948-100.286-62.738-97.28-140.458z"
    />
  </svg>