<svg
    xmlns="http://www.w3.org/2000/svg"
    viewBox="0 0 512 512"
    style={{
      enableBackground: "new 0 0 512 512",
    }}
    xmlSpace="preserve"
    {...props}
  >
    <circle
      style={{
        fill: "#ffc200",
      }}
      cx={256}
      cy={272}
      r={240}
    />
    <path
      style={{
        fill: "#f2b800",
      }}
      d="M256 32c-6.744 0-13.4.348-20 .896C359.184 43.068 456 146.188 456 272s-96.816 228.932-220 239.104c6.6.548 13.256.896 20 .896 132.556 0 240-107.444 240-240S388.556 32 256 32z"
    />
    <path
      style={{
        fill: "#f2b800",
      }}
      d="M256 472c-101.884 0-190.824-72.312-211.484-171.936a19.907 19.907 0 0 1 4.068-16.688A19.934 19.934 0 0 1 64.1 276H168c11.028 0 20 8.972 20 20s-8.972 20-20 20H90.508C115.52 384.812 182.08 432 256 432c83.02 0 155.492-58.908 172.32-140.064 1.916-9.24 10.14-15.936 19.572-15.936 1.36 0 2.728.14 4.064.416 10.804 2.248 17.772 12.852 15.536 23.644C446.824 399.688 357.884 472 256 472z"
    />
    <path
      style={{
        fill: "#f5f5f5",
      }}
      d="M256 464c-98.112 0-183.756-69.628-203.652-165.564a11.991 11.991 0 0 1 2.44-10.012c2.28-2.8 5.7-4.424 9.308-4.424H168c6.628 0 12 5.376 12 12s-5.372 12-12 12H79.46c22.756 77.308 94.752 132 176.54 132 86.792 0 162.564-61.584 180.152-146.436 1.344-6.492 7.676-10.656 14.188-9.312 6.488 1.348 10.656 7.7 9.312 14.192C439.756 394.372 354.108 464 256 464z"
    />
    <path
      style={{
        fill: "#263740",
      }}
      d="M156 232c-30.88 0-56-25.12-56-56s25.12-56 56-56 56 25.12 56 56-25.12 56-56 56zm0-88c-17.644 0-32 14.356-32 32s14.356 32 32 32 32-14.356 32-32-14.356-32-32-32zM356 232c-30.884 0-56-25.12-56-56s25.116-56 56-56 56 25.12 56 56-25.116 56-56 56zm0-88c-17.644 0-32 14.356-32 32s14.356 32 32 32 32-14.356 32-32-14.356-32-32-32zM288 104c0 8.8-7.2 16-16 16h-40c-8.8 0-16-7.2-16-16l-8-88c0-8.8 7.2-16 16-16h56c8.8 0 16 7.2 16 16l-8 88z"
    />
    <path
      style={{
        fill: "#1e2c33",
      }}
      d="M280 0h-16c8.8 0 16 7.2 16 16l-8 88c0 8.8-7.2 16-16 16h16c8.8 0 16-7.2 16-16l8-88c0-8.8-7.2-16-16-16z"
    />
  </svg>