<?xml version="1.0" standalone="no"?>
<!DOCTYPE svg PUBLIC "-//W3C//DTD SVG 20010904//EN"
 "http://www.w3.org/TR/2001/REC-SVG-20010904/DTD/svg10.dtd">
<svg version="1.0" xmlns="http://www.w3.org/2000/svg"
 width="1200.000000pt" height="1200.000000pt" viewBox="0 0 1200.000000 1200.000000"
 preserveAspectRatio="xMidYMid meet">
<metadata>
Created by potrace 1.16, written by Peter Selinger 2001-2019
</metadata>
<g transform="translate(0.000000,1200.000000) scale(0.100000,-0.100000)"
fill="#000000" stroke="none">
<path d="M5550 11795 c-178 -13 -198 -16 -475 -61 -189 -30 -175 -27 -540
-114 -541 -129 -1038 -334 -1549 -637 -138 -82 -492 -323 -516 -352 -3 -3 -38
-30 -78 -59 -194 -140 -541 -463 -729 -679 -65 -75 -138 -159 -163 -187 -25
-29 -68 -83 -95 -121 -27 -39 -57 -78 -66 -88 -18 -20 -88 -118 -195 -272 -73
-106 -184 -288 -259 -427 -69 -126 -215 -417 -215 -427 0 -5 -15 -42 -34 -83
-18 -40 -37 -84 -41 -98 -4 -14 -16 -43 -26 -65 -72 -162 -229 -722 -293
-1045 -17 -88 -50 -283 -66 -390 -51 -358 -51 -1049 1 -1400 47 -325 72 -445
164 -810 52 -206 156 -541 194 -625 10 -22 22 -51 26 -65 4 -14 23 -58 41 -98
19 -41 34 -78 34 -83 0 -10 144 -296 215 -427 74 -137 186 -321 259 -427 107
-154 177 -252 195 -272 9 -10 39 -49 66 -88 27 -38 70 -92 95 -121 25 -28 98
-112 162 -186 189 -217 551 -554 734 -683 38 -27 71 -52 74 -56 9 -11 155
-116 295 -210 325 -221 763 -448 1130 -584 245 -92 456 -152 870 -250 378 -89
794 -135 1225 -135 433 0 858 47 1225 135 33 8 137 33 230 55 511 122 1002
319 1465 588 186 108 571 365 600 401 3 4 36 29 74 56 94 66 343 283 495 430
139 135 408 438 491 554 30 42 62 84 71 94 18 19 78 104 195 272 64 93 254
405 254 418 0 4 20 40 45 80 25 41 45 78 45 82 0 4 29 65 65 136 36 70 65 132
65 138 0 5 15 42 34 83 18 40 37 84 41 98 4 14 16 43 26 65 70 153 233 735
293 1045 54 282 72 407 91 661 26 338 14 853 -25 1129 -16 107 -49 302 -66
390 -63 321 -224 892 -293 1045 -10 22 -22 51 -26 65 -4 14 -23 58 -41 98 -19
41 -34 78 -34 83 0 8 -184 376 -210 419 -5 8 -51 87 -102 175 -51 88 -124 205
-162 260 -117 168 -177 253 -195 272 -9 10 -41 52 -71 94 -83 116 -352 419
-491 554 -152 147 -401 364 -495 430 -38 27 -71 52 -74 56 -9 10 -150 112
-284 204 -315 215 -783 457 -1136 588 -255 94 -453 152 -860 248 -124 30 -249
52 -550 99 -239 38 -787 49 -1130 25z m650 -4145 c338 -42 619 -156 875 -355
80 -63 248 -230 296 -295 46 -61 65 -95 50 -85 -8 4 -37 9 -64 11 -50 2 -70
16 -60 41 10 25 -14 13 -26 -14 l-12 -26 -62 68 c-166 184 -354 314 -605 419
-214 90 -537 128 -782 91 -220 -32 -390 -91 -573 -199 -350 -205 -588 -504
-722 -904 -28 -84 -36 -97 -59 -103 -23 -7 -26 -5 -21 12 4 13 2 19 -9 19 -21
0 -31 -21 -15 -31 11 -6 6 -12 -18 -21 -18 -7 -33 -16 -33 -21 0 -4 -4 -6 -9
-3 -5 3 -8 14 -6 24 87 437 338 818 710 1077 247 172 486 258 830 298 67 8
236 6 315 -3z m1375 -987 c58 -118 116 -295 141 -428 14 -77 18 -149 19 -315
0 -200 -2 -224 -29 -345 -80 -368 -241 -656 -509 -911 -216 -207 -508 -364
-797 -429 -163 -37 -421 -57 -436 -34 -3 6 -10 7 -15 2 -22 -22 -306 24 -457
73 -106 35 -322 141 -412 203 -239 163 -442 387 -572 631 -123 231 -199 521
-197 760 0 66 4 107 8 95 5 -11 13 -21 20 -21 6 -1 16 -2 22 -3 5 0 7 -5 4
-11 -3 -5 1 -10 9 -10 9 0 16 -7 16 -15 0 -9 10 -15 26 -15 14 0 23 -4 19 -10
-3 -5 -13 -7 -23 -4 -12 4 -11 2 3 -7 11 -6 21 -13 23 -14 1 -1 9 -53 17 -115
50 -377 193 -677 453 -944 266 -273 660 -447 1052 -463 266 -11 489 35 736
152 283 134 515 343 680 614 37 60 42 65 94 78 30 8 63 12 73 9 10 -2 17 1 17
10 0 8 4 14 9 14 5 0 9 10 9 23 0 29 -58 57 -58 29 -1 -10 -7 0 -15 22 -13 36
-12 45 20 140 117 351 104 735 -37 1117 -26 71 -25 77 27 101 29 13 34 28 6
21 -14 -4 -18 0 -17 19 0 12 7 28 15 34 12 9 11 12 -3 17 -20 8 -21 27 -2 27
7 0 35 -43 61 -97z m-205 -432 c0 -5 -13 -36 -30 -69 -16 -32 -47 -99 -69
-148 -21 -49 -46 -102 -55 -119 -22 -41 -21 -45 17 -45 78 0 110 -56 105 -183
l-4 -91 -40 -4 c-21 -2 -55 -7 -74 -11 l-35 -8 2 79 3 79 -33 -5 c-17 -3 -53
-8 -79 -11 -46 -6 -48 -8 -48 -38 0 -18 -3 -54 -6 -82 l-6 -50 -51 -2 c-28 -1
-62 -4 -74 -8 l-23 -6 5 108 c3 60 10 169 15 243 5 74 12 179 16 232 l6 97 41
5 c89 12 112 11 109 -2 -1 -7 -5 -81 -8 -165 l-5 -152 50 110 c28 61 65 139
83 175 l33 65 55 6 c90 9 100 9 100 0z m-644 -92 c49 -30 56 -49 55 -153 -1
-139 -21 -224 -56 -243 -12 -7 -10 -15 11 -45 25 -35 26 -41 19 -112 -6 -65
-10 -76 -28 -82 -32 -10 -77 -13 -77 -4 0 3 -7 7 -15 7 -8 0 -12 -4 -9 -9 3
-4 -2 -8 -12 -8 -14 0 -16 8 -12 64 4 40 1 69 -5 75 -12 12 -87 13 -127 2 -23
-6 -26 -13 -32 -75 -3 -37 -9 -71 -12 -74 -4 -3 -31 -7 -61 -8 -29 -1 -59 -5
-66 -9 -11 -7 -9 107 6 295 4 47 15 241 19 320 l2 45 60 8 c253 33 296 34 340
6z m-587 -58 c57 -30 64 -57 57 -215 -3 -74 -10 -167 -16 -208 -5 -40 -10
-107 -11 -149 -2 -75 -2 -75 -28 -72 -14 2 -48 -3 -74 -11 l-49 -15 4 85 3 85
-70 -6 c-97 -9 -95 -7 -96 -67 0 -70 -13 -136 -22 -121 -5 7 -20 10 -41 6 -31
-5 -36 -2 -50 25 -9 17 -16 40 -16 52 0 12 -4 19 -8 16 -9 -6 -7 107 8 332 8
123 12 147 32 175 43 62 87 83 197 96 119 13 139 12 180 -8z m-592 -61 c72
-32 77 -52 61 -270 -13 -173 -15 -185 -33 -182 -13 3 -10 -3 13 -23 40 -34 43
-84 8 -153 -48 -93 -241 -262 -299 -262 -14 0 -90 -126 -147 -247 -27 -57 -31
-60 -49 -39 -14 16 27 109 106 244 24 40 43 74 43 76 0 5 76 126 130 208 25
37 50 68 57 68 28 0 21 -25 -24 -95 -26 -41 -55 -88 -64 -104 -9 -17 -23 -38
-30 -48 -26 -32 75 35 140 94 177 158 152 288 -41 212 -66 -26 -183 -114 -198
-148 -12 -30 -74 -76 -89 -67 -11 7 -8 117 9 400 6 93 10 170 8 171 -2 1 -38
-2 -80 -8 l-78 -9 -1 -62 c-1 -33 -1 -64 -1 -67 1 -3 -3 -46 -8 -95 -5 -49
-11 -136 -15 -194 -3 -58 -8 -124 -11 -148 -6 -38 -8 -41 -20 -25 -10 13 -16
15 -21 6 -5 -6 -32 -16 -61 -21 -52 -9 -53 -9 -48 12 3 11 10 120 16 241 10
215 29 477 35 483 2 2 41 5 87 8 45 2 128 11 182 19 67 11 108 13 126 7 18 -7
33 -6 46 1 15 9 128 29 199 36 6 0 29 -8 52 -19z m1021 -642 c7 -7 12 -25 12
-40 0 -34 6 -35 37 -6 17 16 26 19 35 10 14 -14 -42 -72 -71 -72 -11 0 -22 -8
-26 -19 -7 -24 -75 -71 -101 -71 -28 0 -44 19 -44 54 0 29 -1 28 -58 -32 -59
-63 -88 -76 -112 -47 -7 8 -10 26 -8 40 5 21 3 23 -10 13 -8 -7 -25 -30 -38
-50 -14 -21 -31 -38 -39 -38 -19 0 -19 13 0 51 9 16 13 34 9 40 -8 13 24 86
41 92 24 10 38 -9 25 -32 -11 -21 -10 -22 9 -11 12 6 21 15 21 21 0 5 16 17
35 26 49 23 65 6 32 -33 -35 -43 -50 -75 -40 -85 13 -13 56 22 84 67 14 24 27
34 39 31 11 -3 24 6 36 25 22 34 81 78 104 78 9 0 21 -5 28 -12z m-529 -121
c0 -12 -1 -44 0 -72 l2 -50 33 36 c18 20 36 42 38 50 4 11 8 11 18 2 28 -26
-120 -167 -169 -161 -38 4 -36 42 2 46 30 4 47 33 47 80 l-1 27 -24 -30 c-17
-20 -28 -26 -35 -19 -7 7 0 25 22 60 18 27 37 52 42 56 15 10 27 -2 25 -25z
m-181 -76 c4 -28 -48 -86 -85 -96 -27 -6 -26 -31 1 -29 25 3 77 42 111 84 30
37 45 42 45 15 0 -18 -85 -102 -122 -121 -16 -8 -44 -14 -61 -12 -27 2 -33 8
-35 31 l-3 29 -55 -56 c-53 -56 -79 -67 -102 -44 -16 16 -15 43 3 78 19 37 2
50 -21 15 -9 -14 -23 -25 -30 -25 -17 0 -17 2 -1 31 36 71 72 103 72 66 0 -7
11 -11 28 -9 15 2 27 1 27 -2 0 -3 -11 -25 -25 -50 -47 -84 -19 -92 49 -14 25
29 48 49 52 45 4 -3 22 12 40 36 18 23 41 45 51 49 32 13 58 4 61 -21z"/>
<path d="M6515 6001 c-39 -6 -40 -7 -47 -56 -3 -27 -7 -78 -7 -112 l-1 -61 43
4 c102 12 104 12 111 47 3 17 8 67 12 110 l7 77 -39 -1 c-22 -1 -57 -5 -79 -8z"/>
<path d="M5935 5941 l-50 -6 -3 -114 -3 -114 47 7 c26 3 59 6 74 6 33 0 38 19
41 145 l2 80 -29 1 c-16 1 -51 -1 -79 -5z"/>
<path d="M5372 5881 c-29 -4 -57 -13 -62 -20 -4 -8 -11 -68 -14 -135 -8 -153
-17 -239 -23 -232 -3 3 -29 -6 -58 -19 -30 -13 -55 -21 -58 -19 -2 3 -10 -2
-17 -11 -9 -11 -9 -15 -1 -15 7 0 10 -4 7 -9 -3 -5 2 -8 12 -7 10 0 16 -5 14
-13 -2 -8 21 6 50 30 29 25 92 64 139 88 l86 43 7 142 c3 77 9 151 12 164 7
25 5 25 -94 13z"/>
</g>
</svg>
